<mxfile host="app.diagrams.net" modified="2023-02-21T03:00:58.112Z" agent="5.0 (Windows NT 10.0; Win64; x64) AppleWebKit/537.36 (KHTML, like Gecko) Chrome/110.0.0.0 Safari/537.36 Edg/110.0.1587.50" etag="dFYFYhbwWANeXG-Vg1Mx" version="20.8.20" type="github">
  <diagram name="第 1 页" id="0ZdsKUwiyFukEeA-kE3d">
    <mxGraphModel dx="1434" dy="796" grid="1" gridSize="10" guides="1" tooltips="1" connect="1" arrows="1" fold="1" page="1" pageScale="1" pageWidth="827" pageHeight="1169" math="0" shadow="0">
      <root>
        <mxCell id="0" />
        <mxCell id="1" parent="0" />
        <mxCell id="65tIaMNbKZd_OfP7V4AQ-1" value="" style="rounded=0;whiteSpace=wrap;html=1;" vertex="1" parent="1">
          <mxGeometry x="160" y="170" width="60" height="170" as="geometry" />
        </mxCell>
        <mxCell id="65tIaMNbKZd_OfP7V4AQ-2" value="&lt;font style=&quot;font-size: 22px;&quot;&gt;地址译码单元&lt;/font&gt;" style="text;html=1;strokeColor=none;fillColor=none;align=center;verticalAlign=middle;whiteSpace=wrap;rounded=0;rotation=0;" vertex="1" parent="1">
          <mxGeometry x="170" y="240" width="40" height="30" as="geometry" />
        </mxCell>
        <mxCell id="65tIaMNbKZd_OfP7V4AQ-3" value="存储阵列" style="rounded=0;whiteSpace=wrap;html=1;fontSize=22;" vertex="1" parent="1">
          <mxGeometry x="288" y="210" width="126" height="90" as="geometry" />
        </mxCell>
        <mxCell id="65tIaMNbKZd_OfP7V4AQ-4" value="&lt;font style=&quot;font-size: 22px;&quot;&gt;I/O&lt;/font&gt;" style="rounded=0;whiteSpace=wrap;html=1;" vertex="1" parent="1">
          <mxGeometry x="480" y="170" width="60" height="170" as="geometry" />
        </mxCell>
        <mxCell id="65tIaMNbKZd_OfP7V4AQ-5" value="控制单元" style="rounded=0;whiteSpace=wrap;html=1;fontSize=22;" vertex="1" parent="1">
          <mxGeometry x="291" y="360" width="120" height="50" as="geometry" />
        </mxCell>
        <mxCell id="65tIaMNbKZd_OfP7V4AQ-6" value="" style="shape=flexArrow;endArrow=classic;html=1;rounded=0;fontSize=22;" edge="1" parent="1">
          <mxGeometry width="50" height="50" relative="1" as="geometry">
            <mxPoint x="90" y="260" as="sourcePoint" />
            <mxPoint x="160" y="260" as="targetPoint" />
          </mxGeometry>
        </mxCell>
        <mxCell id="65tIaMNbKZd_OfP7V4AQ-7" value="" style="shape=flexArrow;endArrow=classic;html=1;rounded=0;fontSize=22;entryX=0;entryY=0.5;entryDx=0;entryDy=0;exitX=1;exitY=0.5;exitDx=0;exitDy=0;" edge="1" parent="1" source="65tIaMNbKZd_OfP7V4AQ-1" target="65tIaMNbKZd_OfP7V4AQ-3">
          <mxGeometry width="50" height="50" relative="1" as="geometry">
            <mxPoint x="40" y="440" as="sourcePoint" />
            <mxPoint x="90" y="390" as="targetPoint" />
          </mxGeometry>
        </mxCell>
        <mxCell id="65tIaMNbKZd_OfP7V4AQ-8" value="" style="shape=flexArrow;endArrow=classic;startArrow=classic;html=1;rounded=0;fontSize=22;entryX=0;entryY=0.5;entryDx=0;entryDy=0;" edge="1" parent="1" source="65tIaMNbKZd_OfP7V4AQ-3" target="65tIaMNbKZd_OfP7V4AQ-4">
          <mxGeometry width="100" height="100" relative="1" as="geometry">
            <mxPoint x="110" y="480" as="sourcePoint" />
            <mxPoint x="160" y="420" as="targetPoint" />
          </mxGeometry>
        </mxCell>
        <mxCell id="65tIaMNbKZd_OfP7V4AQ-9" value="" style="shape=flexArrow;endArrow=classic;startArrow=classic;html=1;rounded=0;fontSize=22;exitX=1;exitY=0.5;exitDx=0;exitDy=0;" edge="1" parent="1" source="65tIaMNbKZd_OfP7V4AQ-4">
          <mxGeometry width="100" height="100" relative="1" as="geometry">
            <mxPoint x="540" y="440" as="sourcePoint" />
            <mxPoint x="620" y="255" as="targetPoint" />
          </mxGeometry>
        </mxCell>
        <mxCell id="65tIaMNbKZd_OfP7V4AQ-10" value="" style="shape=flexArrow;endArrow=classic;html=1;rounded=0;fontSize=22;entryX=0.5;entryY=1;entryDx=0;entryDy=0;exitX=1;exitY=0.5;exitDx=0;exitDy=0;" edge="1" parent="1" source="65tIaMNbKZd_OfP7V4AQ-5" target="65tIaMNbKZd_OfP7V4AQ-4">
          <mxGeometry width="50" height="50" relative="1" as="geometry">
            <mxPoint x="440" y="460" as="sourcePoint" />
            <mxPoint x="490" y="410" as="targetPoint" />
            <Array as="points">
              <mxPoint x="510" y="385" />
            </Array>
          </mxGeometry>
        </mxCell>
        <mxCell id="65tIaMNbKZd_OfP7V4AQ-11" value="" style="shape=flexArrow;endArrow=classic;html=1;rounded=0;fontSize=22;entryX=0.5;entryY=1;entryDx=0;entryDy=0;exitX=0;exitY=0.5;exitDx=0;exitDy=0;" edge="1" parent="1" source="65tIaMNbKZd_OfP7V4AQ-5" target="65tIaMNbKZd_OfP7V4AQ-1">
          <mxGeometry width="50" height="50" relative="1" as="geometry">
            <mxPoint x="140" y="530" as="sourcePoint" />
            <mxPoint x="190" y="480" as="targetPoint" />
            <Array as="points">
              <mxPoint x="190" y="385" />
            </Array>
          </mxGeometry>
        </mxCell>
        <mxCell id="65tIaMNbKZd_OfP7V4AQ-12" value="&lt;font style=&quot;font-size: 18px;&quot;&gt;地址总线&lt;/font&gt;" style="text;html=1;strokeColor=none;fillColor=none;align=center;verticalAlign=middle;whiteSpace=wrap;rounded=0;fontSize=22;" vertex="1" parent="1">
          <mxGeometry x="50" y="270" width="90" height="30" as="geometry" />
        </mxCell>
        <mxCell id="65tIaMNbKZd_OfP7V4AQ-13" value="数据总线" style="text;html=1;strokeColor=none;fillColor=none;align=center;verticalAlign=middle;whiteSpace=wrap;rounded=0;fontSize=18;" vertex="1" parent="1">
          <mxGeometry x="550" y="280" width="80" height="30" as="geometry" />
        </mxCell>
        <mxCell id="65tIaMNbKZd_OfP7V4AQ-14" value="读写控制信号" style="text;html=1;strokeColor=none;fillColor=none;align=center;verticalAlign=middle;whiteSpace=wrap;rounded=0;fontSize=18;" vertex="1" parent="1">
          <mxGeometry x="296" y="420" width="110" height="30" as="geometry" />
        </mxCell>
      </root>
    </mxGraphModel>
  </diagram>
</mxfile>
